<svg width="20" height="19" viewBox="0 0 20 19" fill="none" xmlns="http://www.w3.org/2000/svg">
<path d="M5.81689 9.26227L5.81689 5.26227C5.81689 3.05313 7.60775 1.26227 9.81689 1.26227V1.26227C12.026 1.26227 13.8169 3.05313 13.8169 5.26227L13.8169 9.26227" stroke="black" stroke-linecap="round"/>
<path d="M1.51124 9.93009C1.65632 8.18919 1.72886 7.31874 2.30294 6.7905C2.87703 6.26227 3.75049 6.26227 5.49743 6.26227H14.1364C15.8833 6.26227 16.7568 6.26227 17.3308 6.7905C17.9049 7.31874 17.9775 8.18919 18.1225 9.93009L18.6364 16.0962C18.7208 17.1097 18.7631 17.6165 18.466 17.9394C18.1689 18.2623 17.6603 18.2623 16.6433 18.2623H2.99049C1.97344 18.2623 1.46491 18.2623 1.16781 17.9394C0.87071 17.6165 0.91294 17.1097 0.997402 16.0962L1.51124 9.93009Z" stroke="black"/>
</svg>
